<svg width="550" height="50" viewBox="0 0 550 50" fill="none" xmlns="http://www.w3.org/2000/svg">
<rect width="550" height="50" fill="#7F573B"/>
<path d="M27 45.5882L30 50H24L27 45.5882Z" fill="white"/>
<path d="M27 4.41176L24 0L30 4.45355e-07L27 4.41176Z" fill="white"/>
<path d="M98 45.5882L101 50H95L98 45.5882Z" fill="white"/>
<path d="M98 4.41176L95 0L101 4.45355e-07L98 4.41176Z" fill="white"/>
<path d="M169 45.5882L172 50H166L169 45.5882Z" fill="white"/>
<path d="M169 4.41176L166 0L172 4.45355e-07L169 4.41176Z" fill="white"/>
<path d="M240 45.5882L243 50H237L240 45.5882Z" fill="white"/>
<path d="M240 4.41176L237 0L243 4.45355e-07L240 4.41176Z" fill="white"/>
<path d="M311 45.5882L314 50H308L311 45.5882Z" fill="white"/>
<path d="M311 4.41176L308 0L314 4.45355e-07L311 4.41176Z" fill="white"/>
<path d="M382 45.5882L385 50H379L382 45.5882Z" fill="white"/>
<path d="M382 4.41176L379 0L385 4.45355e-07L382 4.41176Z" fill="white"/>
<path d="M453 45.5882L456 50H450L453 45.5882Z" fill="white"/>
<path d="M453 4.41176L450 0L456 4.45355e-07L453 4.41176Z" fill="white"/>
<path d="M524 45.5882L527 50H521L524 45.5882Z" fill="white"/>
<path d="M524 4.41176L521 0L527 4.45355e-07L524 4.41176Z" fill="white"/>
</svg>
