<svg width="99" height="98" viewBox="0 0 99 98" fill="none" xmlns="http://www.w3.org/2000/svg">
<path d="M75.7094 42.8395L23.2769 42.7173M75.7094 42.8395L67.7759 29.9752M75.7094 42.8395L49.4931 73.6079L23.2769 42.7173M23.2769 42.7173L31.2241 29.9752M31.2241 29.9752H67.7759M31.2241 29.9752L40.0498 42.8395L49.4931 29.9752L58.8267 42.8395L67.7759 29.9752M40.1047 42.8395L49.5618 73.6079L58.8816 42.8395M49.4931 1V8.90604M49.4931 89.0804V97M25.2534 7.42536L29.2476 14.2854M69.7524 83.7146L73.7466 90.5611M7.49229 25.0034L14.4238 28.9564M84.5762 69.0436L91.494 72.9966M1 48.9932H8.9884M89.9979 48.9932H98M7.49229 72.9966L14.4238 69.0436M84.5762 28.9564L91.494 25.0034M25.2534 90.5611L29.2476 83.7146M69.7524 14.2854L73.7466 7.42536" stroke="white" stroke-linecap="round" stroke-linejoin="round"/>
</svg>
