<svg width="81" height="81" viewBox="0 0 81 81" fill="none" xmlns="http://www.w3.org/2000/svg">
<path d="M31.0929 6.599C44.6204 6.599 55.5732 17.5654 55.5732 31.0793C55.5732 34.158 55.001 37.1006 53.9657 39.8252M6.599 31.0929C6.599 24.8673 8.9285 19.1865 12.7565 14.8544M47.9171 48.8707C43.5306 53.0257 37.6046 55.5732 31.0929 55.5732C22.6467 55.5732 15.195 51.2956 10.7948 44.7839M38.2994 15.0179L29.7579 24.4586M29.7579 24.4586L35.207 25.3713L41.2011 31.5425L32.1827 37.1687L35.4795 41.7051L31.3926 48.9252M29.7579 24.4586L22.1427 28.4501L24.8536 34.0763L20.1401 37.7136M55.2462 49.4701L78.3097 70.858C80.503 72.8878 80.5711 76.3344 78.4596 78.4596C76.348 80.5711 72.9015 80.503 70.858 78.3097L49.4701 55.2462M76.3208 75.3399C76.3208 75.3399 77.4651 74.1956 74.9449 72.1113M61.1858 31.0929C61.1858 47.7127 47.7127 61.1858 31.0929 61.1858C14.473 61.1858 1 47.7127 1 31.0929C1 14.473 14.473 1 31.0929 1C47.7127 1 61.1858 14.473 61.1858 31.0929Z" stroke="white" stroke-linecap="round" stroke-linejoin="round"/>
</svg>
