<svg width="88" height="81" viewBox="0 0 88 81" fill="none" xmlns="http://www.w3.org/2000/svg">
<path d="M9.3549 80C9.3549 80 28.2855 67.9895 31.6572 63.6641C35.029 59.3387 46.3765 58.1825 49.5045 60.1412C52.6325 62.0999 60.5541 65.3507 67.0403 70.1658C73.5265 74.9809 84.3459 80 84.3459 80M31.9416 38.8678C45.6046 40.8809 42.8151 59.2162 42.8151 59.2162C42.8151 59.2162 43.3703 33.5902 55.3543 24.0145M31.251 38.8406C26.972 43.3564 20.4993 45.5327 14.0266 43.9685C7.55393 42.4043 2.77389 37.5076 1 31.5363C5.27901 27.0205 11.7517 24.8442 18.2244 26.4084C24.6971 27.9726 29.4771 32.8693 31.251 38.8406ZM31.251 38.8406L4.92694 32.4885M8.10912 37.766L13.4714 34.4607L10.0726 29.5232M13.3089 40.5272L20.5399 36.0794L15.963 29.4416M20.6076 41.1393L26.4168 37.5756L22.7471 32.23M55.8959 23.4704C58.9156 18.016 64.6435 14.2891 71.2922 14.1667C77.9409 14.0579 83.7907 17.5944 87 22.9263C83.9803 28.3807 78.2524 32.1212 71.6037 32.23C64.955 32.3388 59.1052 28.8023 55.8959 23.4704ZM55.8959 23.4704L82.9647 22.9943M78.5638 18.6825L74.2036 23.2256L78.7128 27.1565M72.8495 17.3087L66.9591 23.4296L73.039 28.7207M65.6185 18.5601L60.8926 23.484L65.781 27.7278M54.8803 23.4704L46.1327 3.91081M44.3859 8.45386L49.017 10.2221L50.4524 5.71987M45.1713 13.0513L51.4273 15.4316L53.3502 9.36519M48.3264 17.9208L53.3366 19.8387L54.8939 14.9556M26.8907 76.1371C26.8907 76.1371 31.9551 72.3965 33.3092 70.2474C34.6634 68.0983 38.3736 66.7381 38.3736 66.7381M46.7962 71.2812C46.7962 71.2812 53.4314 70.8731 56.5324 73.8247C59.6333 76.7763 63.9123 77.7829 63.9123 77.7829M44.8192 1C41.9621 4.98536 41.2308 10.3581 43.3839 15.1596C45.5369 19.9611 50.0055 22.9807 54.8803 23.484C57.7375 19.4986 58.4687 14.1259 56.3157 9.32438C54.1626 4.5229 49.6941 1.50327 44.8192 1Z" stroke="white" stroke-linecap="round" stroke-linejoin="round"/>
</svg>
