<svg width="89" height="96" viewBox="0 0 89 96" fill="none" xmlns="http://www.w3.org/2000/svg">
<path d="M41.4588 51.6323C40.3926 49.4803 37.9186 47.9726 35.0346 47.9726M35.0346 47.9726C31.18 47.9726 28.05 50.6591 28.05 53.9761C28.05 55.3879 28.665 56.6489 29.5535 57.6906C31.5901 60.0892 36.128 60.5141 39.6955 63.5433C41.0487 64.6947 42.0055 66.2298 42.0055 67.998C42.0055 71.315 38.8754 74.0015 35.0209 74.0015C32.1915 74.0015 29.7449 72.5486 28.6514 70.4651M35.0346 47.9726V44.45M35.0346 77.5104V73.9878M80.619 68.4366V77.949C80.619 81.4853 77.7623 84.35 74.2358 84.35H19.9719C16.4454 84.35 13.5887 81.4853 13.5887 77.949V33.471C13.5887 35.2254 15.0649 37.0895 17.5799 37.0895H74.2358C77.7623 37.0895 80.619 39.9542 80.619 43.4905V53.5375M20.2316 37.0895L51.7238 5.50948L73.6481 27.4949L64.0801 37.0895M16.2267 36.5961L46.2564 6.48265M71.2561 29.8936C74.4408 29.8936 76.7508 32.0181 76.7508 34.6498V37.5556M13.5887 33.4024C13.7117 31.182 14.9965 29.8936 17.7166 29.8936H22.9106M13.5887 21.5462H17.0195M15.3109 23.2596V19.8192M69.5339 3.23418H74.0035M71.7755 5.48206V1M85.3893 43.1341H88M86.7015 44.45V41.8183M1 57.7454H3.62435M2.31218 59.0612V56.4296M47.1038 93.6979H49.7282M48.416 95V92.382M58.5991 53.5238H82.2729V68.4229H58.5991C56.3574 68.4229 54.5395 66.5999 54.5395 64.352V57.5946C54.5395 55.3467 56.3574 53.5238 58.5991 53.5238ZM64.3125 60.9802C64.3125 62.7667 62.8683 64.2149 61.0867 64.2149C59.3052 64.2149 57.861 62.7667 57.861 60.9802C57.861 59.1937 59.3052 57.7454 61.0867 57.7454C62.8683 57.7454 64.3125 59.1937 64.3125 60.9802Z" stroke="white" stroke-linecap="round" stroke-linejoin="round"/>
</svg>
