<svg width="74" height="89" viewBox="0 0 74 89" fill="none" xmlns="http://www.w3.org/2000/svg">
<path d="M32.2566 22.149C32.2566 22.149 9.34696 15.7565 12.0357 4.73357C14.0112 -3.35267 31.941 4.21452 31.941 4.21452M73 65.0799L34.1497 64.9843M73 65.0799L67.1148 55.4911M73 65.0799L53.5748 88L34.1497 64.9843M34.1497 64.9843L40.0349 55.4911M40.0349 55.4911H67.1148M40.0349 55.4911L46.5785 65.0799L53.5748 55.4911L60.4889 65.0799L67.1148 55.4911M46.6196 65.0799L53.616 88L60.53 65.0799M46.6196 50.0684L41.5439 47.4732M61.6687 45.7111L63.3149 44.4408M60.53 50.6285L70.7776 47.719M36.523 1.84429L53.0764 33.4252L22.5507 49.2879C18.0022 51.6515 12.3755 49.8915 10.0017 45.3626L2.05502 30.2019C-0.318813 25.673 1.4488 20.0706 5.99726 17.707L36.523 1.84429ZM38.3749 23.2828C38.3749 25.0254 36.9562 26.438 35.206 26.438C33.4559 26.438 32.0371 25.0254 32.0371 23.2828C32.0371 21.5401 33.4559 20.1275 35.206 20.1275C36.9562 20.1275 38.3749 21.5401 38.3749 23.2828ZM49.8572 46.3668C49.8572 48.4157 51.5308 50.0821 53.5886 50.0821C55.6463 50.0821 57.3199 48.4157 57.3199 46.3668C57.3199 45.6838 57.1279 45.0555 56.8124 44.5091L53.5886 38.8133L50.3648 44.5091C50.0492 45.0555 49.8572 45.6838 49.8572 46.3668Z" stroke="white" stroke-linecap="round" stroke-linejoin="round"/>
</svg>
