<svg width="113" height="76" viewBox="0 0 113 76" fill="none" xmlns="http://www.w3.org/2000/svg">
<path d="M36.4465 39.706L1 75M76.5535 39.706L112 75M56.5 39.706V75M31.4983 44.6466H66.8488M76.3067 55.142H91.8506M20.9438 55.142H64.2171M7.86725 68.4899H105.462M73.6613 44.6466H81.5017M70.2619 1C61.1878 1 53.8408 8.32903 53.8408 17.3504C53.8408 20.3394 54.6632 23.1236 56.0614 25.5393L70.2619 50.6518L84.4625 25.5393C85.8606 23.1236 86.683 20.3394 86.683 17.3504C86.683 8.31538 79.3223 1 70.2619 1ZM70.2619 22.9871C67.1367 22.9871 64.6009 20.4622 64.6009 17.3504C64.6009 14.2387 67.1367 11.7138 70.2619 11.7138C73.3871 11.7138 75.9229 14.2387 75.9229 17.3504C75.9229 20.4622 73.3871 22.9871 70.2619 22.9871ZM77.417 56.2885C77.417 57.4794 74.2136 58.4449 70.2619 58.4449C66.3103 58.4449 63.1068 57.4794 63.1068 56.2885C63.1068 55.0975 66.3103 54.1321 70.2619 54.1321C74.2136 54.1321 77.417 55.0975 77.417 56.2885Z" stroke="white" stroke-linecap="round" stroke-linejoin="round"/>
</svg>
