<svg id="SvgjsSvg1001" width="288" height="288" xmlns="http://www.w3.org/2000/svg" version="1.1" xmlns:xlink="http://www.w3.org/1999/xlink" xmlns:svgjs="http://svgjs.com/svgjs"><defs id="SvgjsDefs1002"></defs><g id="SvgjsG1008"><svg xmlns="http://www.w3.org/2000/svg" width="288" height="288" fill="none" viewBox="0 0 15 15"><path fill="#7f573b" d="M4.35355.646446C4.15829.451184 3.84171.451184 3.64645.646446L.464467 3.82843C.269204 4.02369.269204 4.34027.464467 4.53553.659729 4.7308.976311 4.7308 1.17157 4.53553L4 1.70711 6.82843 4.53553C7.02369 4.7308 7.34027 4.7308 7.53553 4.53553 7.7308 4.34027 7.7308 4.02369 7.53553 3.82843L4.35355.646446zM4.5 14L4.5 1 3.5 1 3.5 14 4.5 14zM10.6464 14.3536C10.8417 14.5488 11.1583 14.5488 11.3536 14.3536L14.5355 11.1716C14.7308 10.9763 14.7308 10.6597 14.5355 10.4645 14.3403 10.2692 14.0237 10.2692 13.8284 10.4645L11 13.2929 8.17157 10.4645C7.97631 10.2692 7.65973 10.2692 7.46447 10.4645 7.2692 10.6597 7.2692 10.9763 7.46447 11.1716L10.6464 14.3536zM10.5 1L10.5 14 11.5 14 11.5 1 10.5 1z" class="color575555 svgShape"></path></svg></g></svg>