<svg width="41" height="48" viewBox="0 0 41 48" fill="none" xmlns="http://www.w3.org/2000/svg">
<path d="M40 24.4283L1 24.3331M40 24.4283L34.085 14.9903M40 24.4283L20.5 47M1 24.3331L6.915 14.9903M1 24.3331L20.5 47M6.915 14.9903H34.085M6.915 14.9903L13.48 24.4283M34.085 14.9903L27.4388 24.4283M20.5 47L13.48 24.4283M20.5 47L27.4388 24.4283M13.48 24.4283L20.5 14.9903L27.4388 24.4283M3.51875 5.44138L7.84125 9.69241M14 1L15.9337 9.69241M37.4325 5.44138L33.1263 9.69241M26.9675 1L25.0337 9.69241" stroke="#7F573B" stroke-linecap="round" stroke-linejoin="round"/>
</svg>
