<svg width="44" height="44" viewBox="0 0 44 44" fill="none" xmlns="http://www.w3.org/2000/svg">
<path d="M27.9213 14.3829C26.9462 12.5599 24.6568 11.288 22 11.288C18.4529 11.288 15.57 13.5491 15.57 16.3472C15.57 17.5343 16.1353 18.5942 16.9549 19.4845C18.8345 21.5054 23.0175 21.8728 26.3102 24.4166C27.568 25.3917 28.43 26.6777 28.43 28.1756C28.43 30.9738 25.5471 33.2349 22 33.2349C19.3856 33.2349 17.1386 32.0054 16.1353 30.253M22 11.3022V8.32032M22 36.2308V33.2631M43 22C43 33.598 33.598 43 22 43C10.402 43 1 33.598 1 22C1 10.402 10.402 1 22 1C33.598 1 43 10.402 43 22Z" stroke="#7F573B" stroke-linecap="round" stroke-linejoin="round"/>
</svg>
