<svg width="38" height="29" viewBox="0 0 38 29" fill="none" xmlns="http://www.w3.org/2000/svg">
<path d="M16.3284 24.2265C7.65459 23.3933 1 18.5386 1 12.6787C1 6.22647 9.05628 1 19 1C28.9437 1 37 6.22647 37 12.6787C37 18.5386 30.3454 23.3933 21.6715 24.2265M16.2729 25.9686C7.62683 25.1148 1 20.267 1 14.4208C1 7.96863 9.05628 2.74216 19 2.74216C28.9437 2.74216 37 7.96863 37 14.4208C37 20.267 30.3732 25.1148 21.7271 25.9686M21.8381 25.1836C21.8381 26.7391 20.5674 28 19 28C17.4326 28 16.1619 26.7391 16.1619 25.1836C16.1619 23.6282 17.4326 22.3673 19 22.3673C20.5674 22.3673 21.8381 23.6282 21.8381 25.1836Z" stroke="#7F573B" stroke-width="0.5" stroke-miterlimit="10"/>
</svg>
