<svg width="37" height="31" viewBox="0 0 37 31" fill="none" xmlns="http://www.w3.org/2000/svg">
<path d="M11.726 26.9853C11.726 28.5247 10.5451 29.75 9.11565 29.75V30.25C10.8457 30.25 12.226 28.7758 12.226 26.9853H11.726ZM9.11565 29.75C7.6862 29.75 6.50529 28.5247 6.50529 26.9853H6.00529C6.00529 28.7758 7.38562 30.25 9.11565 30.25V29.75ZM6.50529 26.9853C6.50529 25.4458 7.6862 24.2205 9.11565 24.2205V23.7205C7.38562 23.7205 6.00529 25.1947 6.00529 26.9853H6.50529ZM9.11565 24.2205C10.5451 24.2205 11.726 25.4458 11.726 26.9853H12.226C12.226 25.1947 10.8457 23.7205 9.11565 23.7205V24.2205ZM30.6449 26.9853C30.6449 28.5247 29.464 29.75 28.0346 29.75V30.25C29.7646 30.25 31.1449 28.7758 31.1449 26.9853H30.6449ZM28.0346 29.75C26.6051 29.75 25.4242 28.5247 25.4242 26.9853H24.9242C24.9242 28.7758 26.3045 30.25 28.0346 30.25V29.75ZM25.4242 26.9853C25.4242 25.4458 26.6051 24.2205 28.0346 24.2205V23.7205C26.3045 23.7205 24.9242 25.1947 24.9242 26.9853H25.4242ZM28.0346 24.2205C29.464 24.2205 30.6449 25.4458 30.6449 26.9853H31.1449C31.1449 25.1947 29.7646 23.7205 28.0346 23.7205V24.2205ZM7.53629 24.4056C4.88799 22.143 3.27706 19.0679 3.27706 15.6939H2.77706C2.77706 19.2356 4.46943 22.4431 7.21151 24.7857L7.53629 24.4056ZM3.27706 15.6939C3.27706 8.80028 10.0481 3.14113 18.5 3.14113V2.64113C9.86489 2.64113 2.77706 8.43956 2.77706 15.6939H3.27706ZM18.5 3.14113C26.952 3.14113 33.7305 8.80824 33.7305 15.6939H34.2305C34.2305 8.44742 27.1351 2.64113 18.5 2.64113V3.14113ZM33.7305 15.6939C33.7305 19.0367 32.1416 22.0886 29.5376 24.3433L29.8649 24.7213C32.5612 22.3867 34.2305 19.2034 34.2305 15.6939H33.7305ZM6.49561 26.0713C3.25616 23.4365 1.25003 19.7534 1.25003 15.6939H0.750031C0.750031 19.9268 2.843 23.745 6.18012 26.4592L6.49561 26.0713ZM1.25003 15.6939C1.25003 7.75272 8.93316 1.25 18.5 1.25V0.75C8.74258 0.75 0.750031 7.39816 0.750031 15.6939H1.25003ZM18.5 1.25C28.0669 1.25 35.75 7.75272 35.75 15.6939H36.25C36.25 7.39816 28.2575 0.75 18.5 0.75V1.25ZM35.75 15.6939C35.75 19.7146 33.7807 23.3664 30.5933 25.9932L30.9113 26.379C34.1954 23.6726 36.25 19.8864 36.25 15.6939H35.75Z" fill="#7F573B"/>
</svg>
