<svg width="35" height="35" viewBox="0 0 35 35" fill="none" xmlns="http://www.w3.org/2000/svg">
<path d="M8.21491 30.7954L13.0744 28.1346V15.0315L8.21491 13.8099M8.21491 30.7954L3.3554 28.1346V15.0315L8.21491 13.8099M8.21491 30.7954V13.8099M6.48763 11.4587V9.70999C6.48763 8.7394 7.26449 7.96125 8.21491 7.96125C9.17358 7.96125 9.94218 8.74776 9.94218 9.70999V11.4587M11.4215 4.49722C10.5951 4.49722 10.6695 3.43459 10.6695 3.43459C10.6695 1.87828 9.23144 0.665039 7.62813 1.0834C6.81821 1.29258 6.15706 1.96196 5.95044 2.78194C5.66119 3.90315 6.14879 4.94905 6.9835 5.48455C7.81821 6.02005 8.27276 7.04085 8.27276 8.05329V8.71429M26.7852 30.7954L31.6447 28.1346V15.0315L26.7852 13.8099M26.7852 30.7954L21.9257 28.1346V15.0315L26.7852 13.8099M26.7852 30.7954V13.8099M25.0579 11.4587V9.70999C25.0579 8.7394 25.8347 7.96125 26.7852 7.96125C27.7438 7.96125 28.5124 8.74776 28.5124 9.70999V11.4587M30 4.49722C29.1736 4.49722 29.248 3.43459 29.248 3.43459C29.248 1.87828 27.8099 0.665039 26.2066 1.0834C25.3967 1.29258 24.7356 1.96196 24.529 2.78194C24.2397 3.90315 24.7273 4.94905 25.562 5.48455C26.3967 6.02005 26.8513 7.04085 26.8513 8.05329V8.71429M15.4298 30.0423L8.21491 34L1.00003 30.0423V12.9983L8.21491 11.1241L15.4298 12.9983V30.0423ZM34 30.0423L26.7852 34L19.5703 30.0423V12.9983L26.7852 11.1241L34 12.9983V30.0423Z" stroke="#7F573B" stroke-width="0.5" stroke-linecap="round" stroke-linejoin="round"/>
</svg>
