<svg width="29" height="41" viewBox="0 0 29 41" fill="none" xmlns="http://www.w3.org/2000/svg">
<path d="M13.124 11.3948V9.76443C13.124 8.94492 13.7509 8.28932 14.5163 8.28932C15.2898 8.28932 15.9087 8.95355 15.9087 9.76443V11.3948M8.80853 1L13.8649 9.54877M20.1508 1L15.0944 9.54877M28 25.6974C28 33.5965 21.9559 40 14.5 40C7.04419 40 1.00003 33.5965 1.00003 25.6974C1.00003 17.7983 7.04419 11.3948 14.5 11.3948C21.9559 11.3948 28 17.7983 28 25.6974ZM22.162 25.6974C22.162 30.1806 18.7316 33.8149 14.5 33.8149C10.2685 33.8149 6.83809 30.1806 6.83809 25.6974C6.83809 21.2143 10.2685 17.58 14.5 17.58C18.7316 17.58 22.162 21.2143 22.162 25.6974ZM18.0908 25.6974C18.0908 27.7984 16.4832 29.5017 14.5 29.5017C12.5169 29.5017 10.9093 27.7984 10.9093 25.6974C10.9093 23.5964 12.5169 21.8932 14.5 21.8932C16.4832 21.8932 18.0908 23.5964 18.0908 25.6974ZM18.9295 13.8706L17.7488 16.6914C18.6201 17.0451 19.4261 17.5282 20.1427 18.1321L22.0154 15.7684C21.0872 14.9834 20.0531 14.3364 18.9295 13.8706ZM12.6924 13.1201L13.0181 16.1825C13.4985 16.0962 13.9871 16.0445 14.4919 16.0445C14.9234 16.0445 15.3468 16.0876 15.7621 16.148L16.2506 13.1115C15.6725 13.0252 15.0863 12.9562 14.4919 12.9562C13.8975 12.9562 13.2787 13.0166 12.6843 13.1115L12.6924 13.1201ZM23.9289 17.8215L21.5757 19.633C22.1538 20.3835 22.6179 21.2376 22.9599 22.152L25.6957 21.0995C25.2561 19.9091 24.6617 18.8049 23.9289 17.8129V17.8215ZM23.6032 25.6974C23.6032 26.1546 23.5625 26.6032 23.5055 27.0431L26.3716 27.5607C26.453 26.9482 26.5181 26.3271 26.5181 25.6974C26.5181 25.0677 26.4611 24.4121 26.3716 23.7823L23.481 24.1274C23.5625 24.6364 23.6113 25.1539 23.6113 25.6888L23.6032 25.6974ZM5.38875 25.6974C5.38875 25.2402 5.42946 24.7916 5.48646 24.3517L2.62036 23.8341C2.53893 24.4466 2.47379 25.0677 2.47379 25.6974C2.47379 26.3271 2.53079 26.9827 2.62036 27.6125L5.51089 27.2674C5.42946 26.7585 5.38061 26.2409 5.38061 25.706L5.38875 25.6974ZM8.77597 18.1924C9.48435 17.58 10.2904 17.0883 11.1535 16.7259L10.1602 13.8275C9.03652 14.2933 7.9943 14.923 7.05793 15.6994L8.76782 18.1924H8.77597ZM16.2995 38.2747L15.9738 35.2123C15.4934 35.2986 15.0049 35.3504 14.5 35.3504C14.0685 35.3504 13.6451 35.3072 13.2298 35.2468L12.7413 38.2833C13.3194 38.3696 13.9056 38.4386 14.5 38.4386C15.0944 38.4386 15.7132 38.3782 16.3076 38.2833L16.2995 38.2747ZM3.33688 21.0046L5.99943 22.2555C6.33326 21.3324 6.78923 20.4784 7.3592 19.7193L5.1282 17.7352C4.38724 18.7186 3.77657 19.8142 3.33688 21.0046ZM25.6632 30.3988L23.0006 29.148C22.6668 30.071 22.2108 30.925 21.6409 31.6841L23.8719 33.6682C24.6128 32.6848 25.2235 31.5893 25.6632 30.3988ZM20.216 33.2024C19.5076 33.8149 18.7015 34.3066 17.8384 34.6689L18.8318 37.5674C19.9554 37.1015 20.9976 36.4718 21.934 35.6954L20.2241 33.2024H20.216ZM7.41619 31.7618C6.83809 31.0113 6.37397 30.1573 6.032 29.2429L3.29617 30.2953C3.73586 31.4857 4.33025 32.5899 5.06306 33.582L7.41619 31.7704V31.7618ZM10.0625 37.5242L11.2431 34.7034C10.3719 34.3497 9.56577 33.8666 8.84925 33.2628L6.97651 35.6264C7.90474 36.4114 8.93881 37.0584 10.0625 37.5242Z" stroke="#7F573B" stroke-width="0.5" stroke-linecap="round" stroke-linejoin="round"/>
</svg>
