<svg width="26" height="34" viewBox="0 0 26 34" fill="none" xmlns="http://www.w3.org/2000/svg">
<path d="M1.00003 1.77621L12.5942 19.9765L25.2754 1.77621M2.24641 1L12.6522 15.5706M12.6522 15.5706L24.029 1M12.6522 15.5706V23M15.5652 28.4704L12.645 23.2513L9.72467 28.4704C9.51452 28.914 9.38409 29.4019 9.38409 29.9267C9.38409 31.7675 10.8406 33.2534 12.645 33.2534C14.4493 33.2534 15.9058 31.7675 15.9058 29.9267C15.9058 29.4019 15.7754 28.9066 15.5652 28.4704ZM13.587 29.8676C13.587 30.627 13.1685 31.2426 12.6522 31.2426C12.1359 31.2426 11.7174 30.627 11.7174 29.8676C11.7174 29.1082 12.1359 28.4926 12.6522 28.4926C13.1685 28.4926 13.587 29.1082 13.587 29.8676Z" stroke="#7F573B" stroke-width="0.5" stroke-linecap="round" stroke-linejoin="round"/>
</svg>
