<svg width="39" height="27" viewBox="0 0 39 27" fill="none" xmlns="http://www.w3.org/2000/svg">
<path d="M1.00003 9.33333V17.6667C1.00003 22.2712 9.28608 26 19.5 26C29.714 26 38 22.2712 38 17.6667V9.33333M1.00003 9.33333C1.00003 13.9357 9.28276 17.6667 19.5 17.6667C29.7173 17.6667 38 13.9357 38 9.33333M1.00003 9.33333C1.00003 4.73096 9.28276 1 19.5 1C29.7173 1 38 4.73096 38 9.33333M4.78982 12.8166C7.7279 10.7333 13.2145 9.33333 19.5 9.33333C25.7855 9.33333 31.2722 10.7333 34.2102 12.8166M36.4815 9.33333C36.4815 13.1809 28.8786 16.2999 19.5 16.2999C10.1214 16.2999 2.51859 13.1809 2.51859 9.33333C2.51859 5.48581 10.1214 2.36677 19.5 2.36677C28.8786 2.36677 36.4815 5.48581 36.4815 9.33333Z" stroke="#7F573B" stroke-width="0.5" stroke-miterlimit="10"/>
</svg>
