<svg id="SvgjsSvg1041" width="288" height="288" xmlns="http://www.w3.org/2000/svg" version="1.1" xmlns:xlink="http://www.w3.org/1999/xlink" xmlns:svgjs="http://svgjs.com/svgjs"><defs id="SvgjsDefs1042"></defs><g id="SvgjsG1043"><svg xmlns="http://www.w3.org/2000/svg" width="288" height="288" fill="none" viewBox="0 0 31 30"><path stroke="#8b8b8b" stroke-linecap="round" stroke-linejoin="round" stroke-width=".5" d="M24.1222 29H7.09898M24.1222 29L30 23.2871M24.1222 29L20.3672 22.9022M7.09898 29L1 23.2871M7.09898 29L10.7566 22.9022M1 23.2871V6.71286M1 23.2871L7.31569 19.6783M1 6.71286L7.28916 1M1 6.71286L7.31569 10.3217M7.28916 1H23.8126M7.28916 1L10.8672 7.0978M23.8126 1L30 6.71286M23.8126 1L20.1903 7.0978M30 6.71286V23.2871M30 6.71286L23.6843 10.3217M30 23.2871L23.6843 19.6783M20.3672 22.9022H10.7566M20.3672 22.9022L23.6843 19.6783M10.7566 22.9022L7.31569 19.6783M7.31569 19.6783V10.3217M7.31569 10.3217L10.8672 7.0978M10.8672 7.0978H20.1903M20.1903 7.0978L23.6843 10.3217M23.6843 10.3217V19.6783M22.813 26.8741H8.37273L3.20253 22.0273V7.96829L8.53637 3.12592H22.5521L27.7975 7.96829V22.0273L22.813 26.8741ZM21.5614 24.8444H9.58899L5.30334 20.8288V9.17122L9.72609 5.1556H21.3447L25.6967 9.17122V20.8288L21.5614 24.8444Z" class="colorStroke7F573B svgStroke"></path></svg></g></svg>