<svg id="SvgjsSvg1051" width="288" height="288" xmlns="http://www.w3.org/2000/svg" version="1.1" xmlns:xlink="http://www.w3.org/1999/xlink" xmlns:svgjs="http://svgjs.com/svgjs"><defs id="SvgjsDefs1052"></defs><g id="SvgjsG1053"><svg xmlns="http://www.w3.org/2000/svg" width="288" height="288" fill="none" viewBox="0 0 24 31"><path stroke="#8b8b8b" stroke-linecap="round" stroke-linejoin="round" stroke-width=".5" d="M19.9924 30H4.14918M19.9924 30L23 26.8147M19.9924 30L17.2811 26.4337M4.14918 30L1 26.8147M4.14918 30L6.81624 26.4337M1 26.8147V4.25619M1 26.8147L4.73301 24.5686M1 4.25619L4.29513 1M1 4.25619L4.73301 6.59533M4.29513 1H19.7624M4.29513 1L6.91355 4.54858M19.7624 1L23 4.25619M19.7624 1L17.1263 4.54858M23 4.25619V26.8147M23 4.25619L19.2626 6.59533M23 26.8147L19.2626 24.5686M17.2811 26.4337H6.81624M17.2811 26.4337L19.2626 24.5686M6.81624 26.4337L4.73301 24.5686M4.73301 24.5686V6.59533M4.73301 6.59533L6.91355 4.54858M6.91355 4.54858H17.1263M17.1263 4.54858L19.2626 6.59533M19.2626 6.59533V24.5686M19.0591 28.8349H5.06916L2.28267 26.1147V4.98717L5.19743 2.34235H18.8556L21.7173 4.98717V26.1147L19.0591 28.8349ZM18.1259 27.7229H5.98472L3.56534 25.3572V5.77574L6.0953 3.51192H17.9489L20.4302 5.77574V25.3572L18.1259 27.7229Z" class="colorStroke7F573B svgStroke"></path></svg></g></svg>