<svg id="SvgjsSvg1046" width="288" height="288" xmlns="http://www.w3.org/2000/svg" version="1.1" xmlns:xlink="http://www.w3.org/1999/xlink" xmlns:svgjs="http://svgjs.com/svgjs"><defs id="SvgjsDefs1047"></defs><g id="SvgjsG1048"><svg xmlns="http://www.w3.org/2000/svg" width="288" height="288" fill="none" viewBox="0 0 19 35"><path stroke="#8b8b8b" stroke-linecap="round" stroke-linejoin="round" stroke-width=".5" d="M1 17.4978C1 24.289 4.35046 30.2953 9.5 33.9956C14.6452 30.2953 18 24.2846 18 17.4978C18 10.711 14.6452 4.70028 9.5 1M1 17.4978C1 10.711 4.35046 4.70028 9.5 1M1 17.4978L12.0987 3.41132M1 17.4978L12.7983 31.0363M9.5 1L3.0294 26.3364L8.14852 28.4715L9.5 34M9.5 1L16.0358 26.1917L10.8602 28.4715L9.5 34M9.5 34L15.9402 8.60662L10.6733 5.52451L9.56953 1L8.34842 5.51136L3.0294 8.80829L9.5 34ZM6.19734 31.0363L17.9957 17.4978L6.71012 3.41132" class="colorStroke7F573B svgStroke"></path></svg></g></svg>