<svg id="SvgjsSvg1056" width="288" height="288" xmlns="http://www.w3.org/2000/svg" version="1.1" xmlns:xlink="http://www.w3.org/1999/xlink" xmlns:svgjs="http://svgjs.com/svgjs"><defs id="SvgjsDefs1057"></defs><g id="SvgjsG1058"><svg xmlns="http://www.w3.org/2000/svg" width="288" height="288" fill="none" viewBox="0 0 21 31"><path stroke="#8b8b8b" stroke-linecap="round" stroke-linejoin="round" stroke-width=".5" d="M10.4117 1C10.4117 1 1 10.1118 1 19.7947M10.4117 1C11.082 1.74382 20 9.98336 20 19.7947M10.4117 1L3.0789 26.5377L8.44148 25.8824M10.4117 1L18.1204 26.396L12.6083 25.754M1 19.7947C1 29.4776 9.5149 30 10.5883 30M1 19.7947L14.0486 5.07771M1 19.7947L4.2882 21.8844L10.5023 24.5232M10.5883 30C11.6617 30 20 29.606 20 19.7947M10.5883 30L8.44148 25.8824M10.5883 30L12.6083 25.754M20 19.7947L7.09631 4.8342M20 19.7947L16.7707 21.942L10.5023 24.5232M8.44148 25.8824L10.5023 24.5232M8.44148 25.8824L6.15876 28.9374M8.44148 25.8824L5.4975 17.758L4.93588 15.3583L3.96663 9.61145L8.73135 6.72916M12.6083 25.754L10.5023 24.5232M12.6083 25.754L14.8231 29.0392M12.6083 25.754L15.6293 18.1786L16.2996 15.5L17.1375 9.71771L12.2596 7.09664" class="colorStroke7F573B svgStroke"></path></svg></g></svg>