<svg id="SvgjsSvg1061" width="288" height="288" xmlns="http://www.w3.org/2000/svg" version="1.1" xmlns:xlink="http://www.w3.org/1999/xlink" xmlns:svgjs="http://svgjs.com/svgjs"><defs id="SvgjsDefs1062"></defs><g id="SvgjsG1063"><svg xmlns="http://www.w3.org/2000/svg" width="288" height="288" fill="none" viewBox="0 0 30 30"><path stroke="#8b8b8b" stroke-linecap="round" stroke-linejoin="round" stroke-width=".5" d="M1 1H29M1 1V29M1 1L20.975 9.03813M1 1L9.08189 20.9312M29 1V29M29 1L9.08189 9.2963L1 29M29 1L20.975 20.9312M29 29H1M29 29L20.975 9.03813M29 29L9.08189 20.9312M1 29L20.975 20.9312M20.975 9.03813H25.7926V20.9312H20.975M20.975 9.03813V4.2205H9.08189V9.03813H4.25988V20.9312H9.08189M9.08189 20.9312V25.7489H20.975V20.9312" class="colorStroke7F573B svgStroke"></path></svg></g></svg>