<svg id="SvgjsSvg1036" width="288" height="288" xmlns="http://www.w3.org/2000/svg" version="1.1" xmlns:xlink="http://www.w3.org/1999/xlink" xmlns:svgjs="http://svgjs.com/svgjs"><defs id="SvgjsDefs1037"></defs><g id="SvgjsG1038"><svg xmlns="http://www.w3.org/2000/svg" width="288" height="288" fill="none" viewBox="0 0 24 30"><path stroke="#8b8b8b" stroke-linecap="round" stroke-linejoin="round" stroke-width=".5" d="M20.2134 29H3.93975M20.2134 29L23 26.154M20.2134 29L18.1792 26.6714M3.93975 29L1 26.154M3.93975 29L5.6721 26.6714M1 26.154V3.67502M1 26.154L2.65798 24.299M1 3.67502L4.08411 1M1 3.67502L2.65798 5.56069M4.08411 1H19.9815M4.08411 1L5.79459 3.32858M19.9815 1L23 3.67502M19.9815 1L17.9823 3.32858M23 3.67502V26.154M23 3.67502L21.342 5.56069M23 26.154L21.342 24.299M18.1792 26.6714H5.6721M18.1792 26.6714L21.342 24.299M18.1792 26.6714L17.7898 24.1543M18.1792 26.6714L12.0022 24.8954M5.6721 26.6714L2.65798 24.299M5.6721 26.6714L5.84271 24.0709M5.6721 26.6714L12.0022 24.8954M2.65798 24.299V5.56069M2.65798 24.299L5.84271 24.0709M2.65798 24.299L5.28276 14.9364M2.65798 5.56069L5.79459 3.32858M2.65798 5.56069L5.84271 5.80188M2.65798 5.56069L5.28276 14.9364M5.79459 3.32858H17.9823M5.79459 3.32858L5.84271 5.80188M5.79459 3.32858L12.0022 4.97745M17.9823 3.32858L21.342 5.56069M17.9823 3.32858L17.8336 5.80188M17.9823 3.32858L12.0022 4.97745M21.342 5.56069V24.299M21.342 5.56069L17.8336 5.80188M21.342 5.56069L18.6122 15.0022M21.342 24.299L17.7898 24.1543M21.342 24.299L18.6122 15.0022M5.84271 5.80188L12.0022 4.97745M5.84271 5.80188L5.28276 14.9364M12.0022 4.97745L17.8336 5.80188M17.8336 5.80188L18.6122 15.0022M18.6122 15.0022L17.7898 24.1543M17.7898 24.1543L12.0022 24.8954M12.0022 24.8954L5.84271 24.0709M5.84271 24.0709L5.28276 14.9364" class="colorStroke7F573B svgStroke"></path></svg></g></svg>