<svg id="SvgjsSvg1076" width="288" height="288" xmlns="http://www.w3.org/2000/svg" version="1.1" xmlns:xlink="http://www.w3.org/1999/xlink" xmlns:svgjs="http://svgjs.com/svgjs"><defs id="SvgjsDefs1077"></defs><g id="SvgjsG1078"><svg xmlns="http://www.w3.org/2000/svg" width="288" height="288" fill="none" viewBox="0 0 31 31"><path stroke="#8b8b8b" stroke-linecap="round" stroke-linejoin="round" stroke-width=".5" d="M30 15.5C30 23.5081 23.5081 30 15.5 30M30 15.5C30 7.49187 23.5081 1 15.5 1M30 15.5L25.1371 11.5334M30 15.5L25.1371 19.4356M15.5 30C7.49187 30 1 23.5081 1 15.5C1 7.49187 7.49187 1 15.5 1M15.5 30L19.3424 25.2613M15.5 30L11.4668 25.2613M15.5 1L11.2316 5.7653M15.5 1L19.3424 5.7653M9.68314 10.1579L15.1539 7.93054M9.68314 10.1579L7.63326 15.5M9.68314 10.1579L11.2316 5.7653M9.68314 10.1579L5.5257 11.6798M15.1539 7.93054L20.9486 10.1579M15.1539 7.93054L19.3424 5.7653M15.1539 7.93054L11.2316 5.7653M20.9486 10.1579L23.2026 15.5M20.9486 10.1579L25.1371 11.5334M20.9486 10.1579L19.3424 5.7653M23.2026 15.5L20.9486 20.8998M23.2026 15.5L25.1371 19.4356M23.2026 15.5L25.1371 11.5334M20.9486 20.8998L15.3625 23.3579M20.9486 20.8998L19.3424 25.2613M20.9486 20.8998L25.1371 19.4356M15.3625 23.3579L9.88724 20.9575M15.3625 23.3579L19.3424 25.2613M15.3625 23.3579L11.4668 25.2613M9.88724 20.9575L7.63326 15.5M9.88724 20.9575L5.5257 19.3468M9.88724 20.9575L11.4668 25.2613M7.63326 15.5L5.5257 11.6798M7.63326 15.5L5.5257 19.3468M19.3424 25.2613L25.7804 25.7272L25.1371 19.4356M19.3424 25.2613L21.0817 28.8863M25.1371 19.4356L28.8375 21.2059M25.1371 11.5334L25.7627 5.25505L19.3424 5.7653M25.1371 11.5334L28.8686 9.87393M19.3424 5.7653L20.9619 2.06487M11.2316 5.7653L5.08644 5.41478L5.5257 11.6798M11.2316 5.7653L9.75857 2.18023M5.5257 11.6798L1 15.6464L5.5257 19.3468M5.5257 11.6798L2.07818 10.0026M5.5257 19.3468L5.29942 25.8071L11.4668 25.2613M5.5257 19.3468L2.16692 21.2059M11.4668 25.2613L9.75857 28.8198" class="colorStroke7F573B svgStroke"></path></svg></g></svg>