<svg id="SvgjsSvg1001" width="288" height="288" xmlns="http://www.w3.org/2000/svg" version="1.1" xmlns:xlink="http://www.w3.org/1999/xlink" xmlns:svgjs="http://svgjs.com/svgjs"><defs id="SvgjsDefs1002"></defs><g id="SvgjsG1008"><svg xmlns="http://www.w3.org/2000/svg" width="288" height="288" fill="none" viewBox="0 0 17 35"><path stroke="#8b8b8b" stroke-linecap="round" stroke-linejoin="round" stroke-width=".5" d="M1 1H16M1 1L3.92634 34M1 1L3.82038 4.01917M16 1L12.9576 34M16 1L13.1746 4.01917M12.9576 34H3.92634M12.9576 34L11.5499 30.9808M3.92634 34L5.33401 30.9808M3.82038 4.01917H13.1746M3.82038 4.01917L5.33401 30.9808M3.82038 4.01917L6.41877 8.40134M13.1746 4.01917L11.5499 30.9808M13.1746 4.01917L10.4652 8.40134M11.5499 30.9808H5.33401M11.5499 30.9808L10.1423 26.5987M5.33401 30.9808L6.88799 26.5987M6.41877 8.40134H10.4652M6.41877 8.40134L6.88799 26.5987M6.41877 8.40134L8.34107 15.2523M10.4652 8.40134L10.1423 26.5987M10.4652 8.40134L8.68416 15.2523M10.1423 26.5987H6.88799M10.1423 26.5987L8.68416 19.8248M6.88799 26.5987L8.34107 19.8248M8.34107 15.2523H8.68416M8.34107 15.2523V19.8248M8.68416 15.2523V19.8248M8.68416 19.8248H8.34107" class="colorStroke7F573B svgStroke"></path></svg></g></svg>