<svg id="SvgjsSvg1016" width="288" height="288" xmlns="http://www.w3.org/2000/svg" version="1.1" xmlns:xlink="http://www.w3.org/1999/xlink" xmlns:svgjs="http://svgjs.com/svgjs"><defs id="SvgjsDefs1017"></defs><g id="SvgjsG1018"><svg xmlns="http://www.w3.org/2000/svg" width="288" height="288" fill="none" viewBox="0 0 33 30"><path stroke="#8b8b8b" stroke-linecap="round" stroke-linejoin="round" stroke-width=".5" d="M1 2.17271L7.08268 1M1 2.17271L2.99781 7.89569M1 2.17271L6.8999 3.11263M1 2.17271L4.94886 6.81522M7.08268 1H26.1469M7.08268 1L6.8999 3.11263M26.1469 1L32 2.17271M26.1469 1V3.11263M32 2.17271L30.1382 8.08016M32 2.17271L26.1469 3.11263M32 2.17271L16.6807 21.5904M30.1382 8.08016L20.6083 24.2609M30.1382 8.08016L28.4124 6.72298M20.6083 24.2609L16.7062 29M20.6083 24.2609L18.7932 23.4176M16.7062 29L12.4385 24.1686M16.7062 29L14.6616 23.4176M16.7062 29L18.7932 23.4176M12.4385 24.1686L2.99781 7.89569M12.4385 24.1686L14.6616 23.4176M2.99781 7.89569L4.94886 6.81522M4.94886 6.81522L7.44399 5.87529M4.94886 6.81522L7.80954 16.1925L14.6616 23.4176M4.94886 6.81522L16.6807 21.5904M7.44399 5.87529L16.4979 4.4698M7.44399 5.87529L6.8999 3.11263M7.44399 5.87529L14.6616 23.4176M16.4979 4.4698L25.7813 5.87529M16.4979 4.4698L6.8999 3.11263M16.4979 4.4698L26.1469 3.11263M25.7813 5.87529L28.4124 6.72298M25.7813 5.87529L18.7932 23.4176M25.7813 5.87529L26.1469 3.11263M28.4124 6.72298L25.3775 16.1661L18.7932 23.4176M6.8999 3.11263L16.5701 1L26.1469 3.11263M14.6616 23.4176L16.6807 21.5904M18.7932 23.4176L16.6807 21.5904" class="colorStroke7F573B svgStroke"></path></svg></g></svg>