<svg width="29" height="18" viewBox="0 0 29 18" fill="none" xmlns="http://www.w3.org/2000/svg">
<path d="M20.5963 14.7293H9.72597M20.5963 14.7293C20.5963 15.9834 21.6029 17 22.8446 17C24.0864 17 25.093 15.9834 25.093 14.7293C25.093 13.4752 24.0864 12.4586 22.8446 12.4586C21.6029 12.4586 20.5963 13.4752 20.5963 14.7293ZM9.72597 14.7293V1H28V14.7293H25.0979M9.72597 14.7293V3.42076H3.41673L1 9.29759M9.72597 14.7293H7.4281M2.92645 14.7293H1V9.29759M1 9.29759H7.28448V4.70616H2.88683M7.4281 14.7293C7.4281 15.9834 6.42148 17 5.17975 17C3.93802 17 2.9314 15.9834 2.9314 14.7293C2.9314 13.4752 3.93802 12.4586 5.17975 12.4586C6.42148 12.4586 7.4281 13.4752 7.4281 14.7293ZM21.3144 10.558L19.0512 3.44576L16.788 10.558M17.4367 8.56736H19.6157" stroke="#7F573B" stroke-linecap="round" stroke-linejoin="round"/>
</svg>
