<svg width="67" height="67" viewBox="0 0 67 67" fill="none" xmlns="http://www.w3.org/2000/svg">
<path d="M66.36 33.68C66.36 51.7287 51.7287 66.36 33.68 66.36M66.36 33.68C66.36 15.6313 51.7287 1 33.68 1M66.36 33.68L55.4 24.74M66.36 33.68L55.4 42.55M33.68 66.36C15.6313 66.36 1 51.7287 1 33.68C1 15.6313 15.6313 1 33.68 1M33.68 66.36L42.34 55.68M33.68 66.36L24.59 55.68M33.68 1L24.06 11.74M33.68 1L42.34 11.74M20.57 21.64L32.9 16.62M20.57 21.64L15.95 33.68M20.57 21.64L24.06 11.74M20.57 21.64L11.2 25.07M32.9 16.62L45.96 21.64M32.9 16.62L42.34 11.74M32.9 16.62L24.06 11.74M45.96 21.64L51.04 33.68M45.96 21.64L55.4 24.74M45.96 21.64L42.34 11.74M51.04 33.68L45.96 45.85M51.04 33.68L55.4 42.55M51.04 33.68L55.4 24.74M45.96 45.85L33.37 51.39M45.96 45.85L42.34 55.68M45.96 45.85L55.4 42.55M33.37 51.39L21.03 45.98M33.37 51.39L42.34 55.68M33.37 51.39L24.59 55.68M21.03 45.98L15.95 33.68M21.03 45.98L11.2 42.35M21.03 45.98L24.59 55.68M15.95 33.68L11.2 25.07M15.95 33.68L11.2 42.35M42.34 55.68L56.85 56.73L55.4 42.55M42.34 55.68L46.26 63.85M55.4 42.55L63.74 46.54M55.4 24.74L56.81 10.59L42.34 11.74M55.4 24.74L63.81 21M42.34 11.74L45.99 3.4M24.06 11.74L10.21 10.95L11.2 25.07M24.06 11.74L20.74 3.66M11.2 25.07L1 34.01L11.2 42.35M11.2 25.07L3.43 21.29M11.2 42.35L10.69 56.91L24.59 55.68M11.2 42.35L3.63 46.54M24.59 55.68L20.74 63.7" stroke="#7F573B" stroke-linecap="round" stroke-linejoin="round"/>
</svg>
