<svg width="67" height="66" viewBox="0 0 67 66" fill="none" xmlns="http://www.w3.org/2000/svg">
<path d="M33.471 64.75C52.341 53.4 65.441 34.99 65.931 20.17C66.261 10.04 59.131 1 50.111 1C39.371 1 33.471 10.98 33.471 10.98M33.471 64.75C14.601 53.4 1.50101 34.99 1.01101 20.17C0.681009 10.04 7.81101 1 16.831 1C27.571 1 33.471 10.98 33.471 10.98M33.471 64.75L28.081 48.84M33.471 64.75L38.671 49.14M33.471 10.98L23.921 10.35M33.471 10.98L43.511 10.35M33.471 10.98L48.071 16.49M33.471 10.98L19.371 15.99M23.921 10.35L19.371 15.99M23.921 10.35L20.161 1.33M23.921 10.35L6.69101 5.39L9.18101 17.47M19.371 15.99V28.06M19.371 15.99L9.18101 17.47M19.371 28.06L26.421 38.85M19.371 28.06L9.18101 17.47M19.371 28.06L15.121 34.89M26.421 38.85L33.471 45.18M26.421 38.85L15.121 34.89M26.421 38.85L28.081 48.84M33.471 45.18L41.041 38.65M33.471 45.18L28.081 48.84M33.471 45.18L38.671 49.14M41.041 38.65L47.271 28.36M41.041 38.65L38.671 49.14M41.041 38.65L52.021 34.99M47.271 28.36L48.071 16.49M47.271 28.36L52.021 34.99M47.271 28.36L57.561 17.77M48.071 16.49L43.511 10.35M48.071 16.49L57.561 17.77M43.511 10.35L60.601 5.73L57.561 17.77M43.511 10.35L46.261 1.44M44.561 56.74L38.671 49.14M38.671 49.14L52.901 48.42L52.021 34.99M52.021 34.99L64.681 27.77L57.561 17.77M57.561 17.77L65.431 14.91M9.18101 17.47L1.62101 14.47M9.18101 17.47L2.16101 27.42L15.121 34.89M15.121 34.89L13.861 48.22L28.081 48.84M28.081 48.84L22.381 56.74" stroke="#7F573B" stroke-linecap="round" stroke-linejoin="round"/>
</svg>
