<svg width="44" height="64" viewBox="0 0 44 64" fill="none" xmlns="http://www.w3.org/2000/svg">
<path d="M36.82 24.5L41.51 21.91M36.82 24.5L30.5 20.1M36.82 24.5L33.6 31.96M36.82 24.5V10.5L28.06 9.76M36.82 24.5L42.63 31.96L36.82 39.49M36.82 39.49L41.46 42.22M36.82 39.49L33.6 31.96M36.82 39.49L30.2 44.17M36.82 39.49L36.97 53.2L27.81 53.99M1 31.96C1 49.0587 10.3214 62.92 21.82 62.92C33.3186 62.92 42.64 49.0587 42.64 31.96C42.64 14.8613 33.3186 1 21.82 1M1 31.96C1 14.8613 10.3214 1 21.82 1M1 31.96L6.39 39.89M1 31.96L6.39 24.3M21.82 1L15.59 9.76M21.82 1L28.06 9.76M21.82 14.32L13.22 20.03M21.82 14.32L30.5 20.1M21.82 14.32L15.59 9.76M21.82 14.32L28.06 9.76M13.22 20.03L9.99 31.96M13.22 20.03L15.59 9.76M13.22 20.03L6.39 24.3M9.99 31.96L13.15 44.17M9.99 31.96L6.39 39.89M9.99 31.96L6.39 24.3M13.15 44.17L21.82 49.85M13.15 44.17L15.3 53.99M13.15 44.17L6.39 39.89M21.82 49.85L30.2 44.17M21.82 49.85L27.81 53.99M21.82 49.85L15.3 53.99M30.2 44.17L33.6 31.96M30.2 44.17L27.81 53.99M33.6 31.96L30.5 20.1M30.5 20.1L28.06 9.76M15.59 9.76L6.63 10.79L6.39 24.3M15.59 9.76L13.01 3.9M28.06 9.76L30.62 3.9M27.81 53.99L21.82 62.93L15.3 53.99M27.81 53.99L30.6 60.04M15.3 53.99L6.79 53.39L6.39 39.89M15.3 53.99L13.03 60.04M6.39 39.89L2.11 41.96M6.39 24.3L2.06 22.18" stroke="#7F573B" stroke-linecap="round" stroke-linejoin="round"/>
</svg>
