<svg width="67" height="67" viewBox="0 0 67 67" fill="none" xmlns="http://www.w3.org/2000/svg">
<path d="M18.46 18.51L33.5 16.34M18.46 18.51L16.29 32.86M18.46 18.51H8.97M18.46 18.51L18.17 9.41M33.5 16.34L48.64 18.51M33.5 16.34L18.17 9.41M33.5 16.34L48.94 9.01M48.64 18.51L50.52 32.86M48.64 18.51L48.94 9.01M48.64 18.51L57.94 18.41M50.52 32.86L48.54 48.4M50.52 32.86L57.94 18.41M50.52 32.86L57.94 48.49M48.54 48.4L33.5 51.28M48.54 48.4L57.94 48.49M48.54 48.4V58.22M33.5 51.28L18.46 48.59M33.5 51.28L18.07 58.22M33.5 51.28L48.54 58.22M18.46 48.59L16.29 32.86M18.46 48.59L18.07 58.22M18.46 48.59L8.97 48.59M16.29 32.86L8.97 48.59M16.29 32.86L8.97 18.51M18.07 58.22L33.9 66.07L48.54 58.22M18.07 58.22L7.39 58.68L8.97 48.59M8.97 48.59L1 33.81L8.97 18.51M8.97 18.51L8.02 7.59L18.17 9.41M18.17 9.41L34.1 1L48.94 9.01M48.94 9.01L59.21 8.16L57.94 18.41M57.94 18.41L65.99 33.09L57.94 48.49M57.94 48.49L58.77 59.18L48.54 58.22M33.5 66.07C21.07 66.07 14.79 65.18 8.01 59.24C1.23 53.3 1 44.31 1 33.09C1 21.87 2.05 13.21 7.55 8.03C13.05 2.85 19.94 1 33.5 1C47.06 1 53.64 3.06 59.22 8.16C65.17 13.6 66 21.88 66 33.09C66 44.3 65.5 53.18 58.78 59.18C52.06 65.18 45.93 66.07 33.51 66.07H33.5Z" stroke="#7F573B" stroke-linecap="round" stroke-linejoin="round"/>
</svg>
