<svg width="44" height="67" viewBox="0 0 44 67" fill="none" xmlns="http://www.w3.org/2000/svg">
<path d="M21.78 1C21.78 1 1 21.58 1 43.45M21.78 1C23.26 2.68 42.95 21.29 42.95 43.45M21.78 1L5.59 58.68L17.43 57.2M21.78 1L38.8 58.36L26.63 56.91M1 43.45C1 65.32 19.8 66.5 22.17 66.5M1 43.45L29.81 10.21M1 43.45L8.26 48.17L21.98 54.13M22.17 66.5C24.54 66.5 42.95 65.61 42.95 43.45M22.17 66.5L17.43 57.2M22.17 66.5L26.63 56.91M42.95 43.45L14.46 9.66M42.95 43.45L35.82 48.3L21.98 54.13M17.43 57.2L21.98 54.13M17.43 57.2L12.39 64.1M17.43 57.2L10.93 38.85L9.69 33.43L7.55 20.45L18.07 13.94M26.63 56.91L21.98 54.13M26.63 56.91L31.52 64.33M26.63 56.91L33.3 39.8L34.78 33.75L36.63 20.69L25.86 14.77" stroke="#7F573B" stroke-linecap="round" stroke-linejoin="round"/>
</svg>
