<svg width="52" height="67" viewBox="0 0 52 67" fill="none" xmlns="http://www.w3.org/2000/svg">
<path d="M43.94 66.46H8.12M43.94 66.46L50.74 59.27M43.94 66.46L37.81 58.41M8.12 66.46L1 59.27M8.12 66.46L14.15 58.41M1 59.27V8.35M1 59.27L9.44 54.2M1 8.35L8.45 1M1 8.35L9.44 13.63M8.45 1H43.42M8.45 1L14.37 9.01M43.42 1L50.74 8.35M43.42 1L37.46 9.01M50.74 8.35V59.27M50.74 8.35L42.29 13.63M50.74 59.27L42.29 54.2M37.81 58.41H14.15M37.81 58.41L42.29 54.2M14.15 58.41L9.44 54.2M9.44 54.2V13.63M9.44 13.63L14.37 9.01M14.37 9.01H37.46M37.46 9.01L42.29 13.63M42.29 13.63V54.2M41.83 63.83H10.2L3.9 57.69V10L10.49 4.03H41.37L47.84 10V57.69L41.83 63.83ZM39.72 61.32H12.27L6.8 55.98V11.78L12.52 6.67H39.32L44.93 11.78V55.98L39.72 61.32Z" stroke="#7F573B" stroke-linecap="round" stroke-linejoin="round"/>
</svg>
