<svg width="41" height="77" viewBox="0 0 41 77" fill="none" xmlns="http://www.w3.org/2000/svg">
<path d="M1 38.63C1 54.12 8.71 67.82 20.56 76.26C32.4 67.82 40.12 54.11 40.12 38.63C40.12 23.15 32.4 9.44 20.56 1M1 38.63C1 23.15 8.71 9.44 20.56 1M1 38.63L26.54 6.5M1 38.63L28.15 69.51M20.56 1L5.67 58.79L17.45 63.66L20.56 76.27M20.56 1L35.6 58.46L23.69 63.66L20.56 76.27M20.56 76.27L35.38 18.35L23.26 11.32L20.72 1L17.91 11.29L5.67 18.81L20.56 76.27ZM12.96 69.51L40.11 38.63L14.14 6.5" stroke="#7F573B" stroke-linecap="round" stroke-linejoin="round"/>
</svg>
