<svg width="68" height="66" viewBox="0 0 68 66" fill="none" xmlns="http://www.w3.org/2000/svg">
<path d="M53.28 65.01H14.79M53.28 65.01L66.57 51.95M53.28 65.01L44.79 51.07M14.79 65.01L1 51.95M14.79 65.01L23.06 51.07M1 51.95V14.06M1 51.95L15.28 43.7M1 14.06L15.22 1M1 14.06L15.28 22.31M15.22 1H52.58M15.22 1L23.31 14.94M52.58 1L66.57 14.06M52.58 1L44.39 14.94M66.57 14.06V51.95M66.57 14.06L52.29 22.31M66.57 51.95L52.29 43.7M44.79 51.07H23.06M44.79 51.07L52.29 43.7M23.06 51.07L15.28 43.7M15.28 43.7V22.31M15.28 22.31L23.31 14.94M23.31 14.94H44.39M44.39 14.94L52.29 22.31M52.29 22.31V43.7M50.32 60.15H17.67L5.98 49.07V16.93L18.04 5.86H49.73L61.59 16.93V49.07L50.32 60.15ZM47.49 55.51H20.42L10.73 46.33V19.68L20.73 10.5H47L56.84 19.68V46.33L47.49 55.51Z" stroke="#7F573B" stroke-linecap="round" stroke-linejoin="round"/>
</svg>
