<svg width="52" height="66" viewBox="0 0 52 66" fill="none" xmlns="http://www.w3.org/2000/svg">
<path d="M44.92 64.85H7.72M44.92 64.85L51.29 58.36M44.92 64.85L40.27 59.54M7.72 64.85L1 58.36M7.72 64.85L11.68 59.54M1 58.36V7.1M1 58.36L4.79 54.13M1 7.1L8.05 1M1 7.1L4.79 11.4M8.05 1H44.39M8.05 1L11.96 6.31M44.39 1L51.29 7.1M44.39 1L39.82 6.31M51.29 7.1V58.36M51.29 7.1L47.5 11.4M51.29 58.36L47.5 54.13M40.27 59.54H11.68M40.27 59.54L47.5 54.13M40.27 59.54L39.38 53.8M40.27 59.54L26.15 55.49M11.68 59.54L4.79 54.13M11.68 59.54L12.07 53.61M11.68 59.54L26.15 55.49M4.79 54.13V11.4M4.79 54.13L12.07 53.61M4.79 54.13L10.79 32.78M4.79 11.4L11.96 6.31M4.79 11.4L12.07 11.95M4.79 11.4L10.79 32.78M11.96 6.31H39.82M11.96 6.31L12.07 11.95M11.96 6.31L26.15 10.07M39.82 6.31L47.5 11.4M39.82 6.31L39.48 11.95M39.82 6.31L26.15 10.07M47.5 11.4V54.13M47.5 11.4L39.48 11.95M47.5 11.4L41.26 32.93M47.5 54.13L39.38 53.8M47.5 54.13L41.26 32.93M12.07 11.95L26.15 10.07M12.07 11.95L10.79 32.78M26.15 10.07L39.48 11.95M39.48 11.95L41.26 32.93M41.26 32.93L39.38 53.8M39.38 53.8L26.15 55.49M26.15 55.49L12.07 53.61M12.07 53.61L10.79 32.78" stroke="#7F573B" stroke-linecap="round" stroke-linejoin="round"/>
</svg>
