<svg width="37" height="40" viewBox="0 0 37 40" fill="none" xmlns="http://www.w3.org/2000/svg">
<path d="M1 12.4582V17.8695L18.4937 25.1767M1 12.4582L18.5063 19.7654L36 12.4582L23.7228 7.33565L7.29015 9.83415L1 12.4582ZM18.4937 25.1767L35.9874 17.8695V12.4582M18.4937 25.1767V19.7654M2.49044 18.8112V32.308L18.4937 38.9874L34.4969 32.308V18.8112M18.4937 39V25.5031M9.41213 35.2083V21.6863M8.71743 21.0837V15.8481L26.59 8.5284M14.515 6.82088L16.8517 5.84158M9.41213 8.96783L12.5698 7.67464M21.7777 6.46934L19.3652 5.52769M16.0938 12.8223C16.0938 12.8223 6.62071 12.7093 6.12811 7.2101C5.63551 1.7109 15.3865 1.18358 16.0938 12.8223ZM16.6496 12.1318C16.6496 12.1318 24.5944 10.7883 24.0765 4.7116C23.5586 -1.36514 15.2728 -0.699712 16.6496 12.1318Z" stroke="#7F573B" stroke-linecap="round" stroke-linejoin="round"/>
</svg>
