<svg width="78" height="75" viewBox="0 0 78 75" fill="none" xmlns="http://www.w3.org/2000/svg">
<path d="M13.3762 55.75C12.5393 57.2378 11.8807 59.4628 11.8807 60.8824C11.8807 61.21 11.8807 61.6195 11.963 62.2064L1.57628 44.4342C1.24698 43.8609 1 43.0282 1 42.2911C1 41.554 1.24698 40.6395 1.57628 40.0662L6.55696 31.3848L1 28.2317L19.1116 27.9041L27.9204 43.6834L22.2674 40.462L13.3762 55.75Z" stroke="white" stroke-linecap="round" stroke-linejoin="round"/>
<path d="M19.4272 5.21784C21.0051 2.48785 23.5846 1 26.7404 1C30.1432 1 32.805 2.56975 34.7122 5.79114L37.5387 10.5004L27.7283 27.3717L11.8669 18.199L19.4272 5.21784Z" stroke="white" stroke-linecap="round" stroke-linejoin="round"/>
<path d="M20.5797 69.6047C15.846 69.6047 11.9355 65.7145 11.9355 61.0052C11.9355 59.6812 12.5255 57.4426 13.3488 56.0503L16.0107 51.3411H35.7001V69.6047H20.5797Z" stroke="white" stroke-linecap="round" stroke-linejoin="round"/>
<path d="M34.8632 5.96859C33.6146 3.82554 31.9543 2.3377 29.9648 1.50505H50.3952C52.2201 1.50505 53.6333 2.2558 54.4703 3.66174L59.5333 12.2612L65.0217 9.03983L56.2129 24.7509L38.1836 24.4916L43.7543 21.3521L34.8632 5.98224V5.96859Z" stroke="white" stroke-linecap="round" stroke-linejoin="round"/>
<path d="M67.4777 49.5393C69.9612 49.5393 72.0468 48.8841 73.7893 47.56L63.4849 65.4142C62.648 66.8201 61.1661 67.6391 59.4235 67.6391H49.6954V74L40.3927 58.5482L49.6954 43.0965V49.5393H67.4777Z" stroke="white" stroke-linecap="round" stroke-linejoin="round"/>
<path d="M75.8337 36.6264C76.5884 37.9505 77 39.3564 77 40.8442C77 43.8199 75.0928 46.9594 72.4309 48.4473C71.1823 49.1161 69.4398 49.5256 67.6972 49.5256H62.2089L52.4122 32.6543L68.2735 23.6453L75.8337 36.6264Z" stroke="white" stroke-linecap="round" stroke-linejoin="round"/>
</svg>
