<svg width="25" height="25" viewBox="0 0 25 25" fill="none" xmlns="http://www.w3.org/2000/svg">
<path d="M15.4234 6.5498H9.57023C7.90528 6.5498 6.54364 7.90499 6.54364 9.57639V15.4295C6.54364 17.0945 7.89883 18.4561 9.57023 18.4561H15.4234C17.0883 18.4561 18.4499 17.1009 18.4499 15.4295V9.57639C18.4499 7.90499 17.0947 6.5498 15.4234 6.5498ZM12.5581 16.1007C10.5705 16.1007 8.95071 14.4809 8.95071 12.4933C8.95071 10.5057 10.5705 8.88589 12.5581 8.88589C14.5457 8.88589 16.1655 10.5057 16.1655 12.4933C16.1719 14.4809 14.5522 16.1007 12.5581 16.1007ZM16.3784 9.49895C15.9009 9.49895 15.5201 9.11176 15.5201 8.64067C15.5201 8.16312 15.9073 7.78238 16.3784 7.78238C16.856 7.78238 17.2367 8.16958 17.2367 8.64067C17.2432 9.11176 16.856 9.49895 16.3784 9.49895Z" fill="#7F573B"/>
<path d="M12.5581 10.1768C11.2803 10.1768 10.2478 11.2157 10.2478 12.487C10.2478 13.7648 11.2868 14.7973 12.5581 14.7973C13.8358 14.7973 14.8684 13.7583 14.8684 12.487C14.8748 11.2157 13.8358 10.1768 12.5581 10.1768Z" fill="#7F573B"/>
<path d="M12.5 0C5.59499 0 0 5.59499 0 12.5C0 19.405 5.59499 25 12.5 25C19.405 25 25 19.405 25 12.5C25 5.59499 19.405 0 12.5 0ZM19.8309 15.4233C19.8309 17.8498 17.8562 19.8245 15.4298 19.8245H9.57666C7.15023 19.8245 5.17553 17.8498 5.17553 15.4233V9.57021C5.17553 7.14378 7.15023 5.16908 9.57666 5.16908H15.4298C17.8562 5.16908 19.8309 7.14378 19.8309 9.57021V15.4233Z" fill="#7F573B"/>
</svg>
