<svg width="25" height="25" viewBox="0 0 25 25" fill="none" xmlns="http://www.w3.org/2000/svg">
<path d="M14.5328 12.3838L11.2352 10.5898C11.0996 10.5123 10.635 10.6091 10.635 10.764V14.2617C10.635 14.4165 11.0932 14.5133 11.2287 14.4424L14.6683 12.7387C14.8167 12.6613 14.6748 12.4612 14.5328 12.3838Z" fill="#7F573B"/>
<path d="M12.5 0C5.59499 0 0 5.59499 0 12.5C0 19.405 5.59499 25 12.5 25C19.405 25 25 19.405 25 12.5C25 5.59499 19.405 0 12.5 0ZM19.192 14.2553C19.192 15.9138 17.8498 17.2561 16.1913 17.2561H8.51833C6.85983 17.2561 5.51755 15.9138 5.51755 14.2553V10.6802C5.51755 9.02168 6.85983 7.6794 8.51833 7.6794H16.1913C17.8498 7.6794 19.192 9.02168 19.192 10.6802V14.2553Z" fill="#7F573B"/>
</svg>
