<svg width="31" height="31" viewBox="0 0 31 31" fill="none" xmlns="http://www.w3.org/2000/svg">
<path d="M8.78985 8.80375L15.5 7.83664M8.78985 8.80375L7.82169 15.1992M8.78985 8.80375H4.55585M8.78985 8.80375L8.66046 4.74812M15.5 7.83664L22.2548 8.80375M15.5 7.83664L8.66046 4.74812M15.5 7.83664L22.3886 4.56985M22.2548 8.80375L23.0935 15.1992M22.2548 8.80375L22.3886 4.56985M22.2548 8.80375L26.404 8.75918M23.0935 15.1992L22.2102 22.1249M23.0935 15.1992L26.404 8.75918M23.0935 15.1992L26.404 22.1651M22.2102 22.1249L15.5 23.4085M22.2102 22.1249L26.404 22.1651M22.2102 22.1249V26.5015M15.5 23.4085L8.78985 22.2096M15.5 23.4085L8.61585 26.5015M15.5 23.4085L22.2102 26.5015M8.78985 22.2096L7.82169 15.1992M8.78985 22.2096L8.61585 26.5015M8.78985 22.2096L4.55585 22.2096M7.82169 15.1992L4.55585 22.2096M7.82169 15.1992L4.55585 8.80375M8.61585 26.5015L15.6785 30L22.2102 26.5015M8.61585 26.5015L3.85092 26.7065L4.55585 22.2096M4.55585 22.2096L1 15.6226L4.55585 8.80375M4.55585 8.80375L4.132 3.93699L8.66046 4.74812M8.66046 4.74812L15.7677 1L22.3886 4.56985M22.3886 4.56985L26.9706 4.19102L26.404 8.75918M26.404 8.75918L29.9955 15.3017L26.404 22.1651M26.404 22.1651L26.7743 26.9293L22.2102 26.5015M15.5 30C9.95431 30 7.15246 29.6034 4.12754 26.956C1.10262 24.3087 1 20.3021 1 15.3017C1 10.3012 1.46846 6.44168 3.92231 4.13309C6.37615 1.8245 9.45015 1 15.5 1C21.5498 1 24.4855 1.91809 26.9751 4.19102C29.6297 6.61549 30 10.3057 30 15.3017C30 20.2977 29.7769 24.2553 26.7788 26.9293C23.7806 29.6033 21.0457 30 15.5045 30H15.5Z" stroke="#7F573B" stroke-width="0.5" stroke-linecap="round" stroke-linejoin="round"/>
</svg>
