<svg width="31" height="30" viewBox="0 0 31 30" fill="none" xmlns="http://www.w3.org/2000/svg">
<path d="M15.5 29C23.9264 24.0149 29.7763 15.9289 29.9951 9.41976C30.1424 4.97051 26.9585 1 22.9306 1C18.1347 1 15.5 5.38337 15.5 5.38337M15.5 29C7.07356 24.0149 1.22373 15.9289 1.00492 9.41976C0.857554 4.97051 4.04147 1 8.06937 1C12.8653 1 15.5 5.38337 15.5 5.38337M15.5 29L13.0931 22.0121M15.5 29L17.8221 22.1438M15.5 5.38337L11.2354 5.10667M15.5 5.38337L19.9834 5.10667M15.5 5.38337L22.0197 7.80345M15.5 5.38337L9.20361 7.58384M11.2354 5.10667L9.20361 7.58384M11.2354 5.10667L9.55639 1.14494M11.2354 5.10667L3.54133 2.92816L4.65325 8.23388M9.20361 7.58384V12.8852M9.20361 7.58384L4.65325 8.23388M9.20361 12.8852L12.3518 17.6243M9.20361 12.8852L4.65325 8.23388M9.20361 12.8852L7.30577 15.885M12.3518 17.6243L15.5 20.4045M12.3518 17.6243L7.30577 15.885M12.3518 17.6243L13.0931 22.0121M15.5 20.4045L18.8804 17.5365M15.5 20.4045L13.0931 22.0121M15.5 20.4045L17.8221 22.1438M18.8804 17.5365L21.6624 13.0169M18.8804 17.5365L17.8221 22.1438M18.8804 17.5365L23.7835 15.9289M21.6624 13.0169L22.0197 7.80345M21.6624 13.0169L23.7835 15.9289M21.6624 13.0169L26.2574 8.36565M22.0197 7.80345L19.9834 5.10667M22.0197 7.80345L26.2574 8.36565M19.9834 5.10667L27.615 3.07749L26.2574 8.36565M19.9834 5.10667L21.2114 1.19325M20.4523 25.4819L17.8221 22.1438M17.8221 22.1438L24.1765 21.8276L23.7835 15.9289M23.7835 15.9289L29.4369 12.7578L26.2574 8.36565M26.2574 8.36565L29.7718 7.10949M4.65325 8.23388L1.27731 6.91624M4.65325 8.23388L1.51845 12.6041L7.30577 15.885M7.30577 15.885L6.74311 21.7398L13.0931 22.0121M13.0931 22.0121L10.5477 25.4819" stroke="#7F573B" stroke-width="0.5" stroke-linecap="round" stroke-linejoin="round"/>
</svg>
