<svg width="20" height="30" viewBox="0 0 20 30" fill="none" xmlns="http://www.w3.org/2000/svg">
<path d="M16.4842 11.6249L18.5115 10.4539M16.4842 11.6249L13.7522 9.63556M16.4842 11.6249L15.0922 14.9977M16.4842 11.6249V5.29517L12.6974 4.9606M16.4842 11.6249L18.9957 14.9977L16.4842 18.4022M16.4842 18.4022L18.4899 19.6365M16.4842 18.4022L15.0922 14.9977M16.4842 18.4022L13.6225 20.5182M16.4842 18.4022L16.549 24.6008L12.5893 24.958M1 14.9977C1 22.7285 5.02944 28.9955 10 28.9955C14.9706 28.9955 19 22.7285 19 14.9977C19 7.267 14.9706 1 10 1M1 14.9977C1 7.267 5.02944 1 10 1M1 14.9977L3.32997 18.5831M1 14.9977L3.32997 11.5345M10 1L7.30692 4.9606M10 1L12.6974 4.9606M10 7.02228L6.28242 9.60391M10 7.02228L13.7522 9.63556M10 7.02228L7.30692 4.9606M10 7.02228L12.6974 4.9606M6.28242 9.60391L4.88617 14.9977M6.28242 9.60391L7.30692 4.9606M6.28242 9.60391L3.32997 11.5345M4.88617 14.9977L6.25216 20.5182M4.88617 14.9977L3.32997 18.5831M4.88617 14.9977L3.32997 11.5345M6.25216 20.5182L10 23.0862M6.25216 20.5182L7.18156 24.958M6.25216 20.5182L3.32997 18.5831M10 23.0862L13.6225 20.5182M10 23.0862L12.5893 24.958M10 23.0862L7.18156 24.958M13.6225 20.5182L15.0922 14.9977M13.6225 20.5182L12.5893 24.958M15.0922 14.9977L13.7522 9.63556M13.7522 9.63556L12.6974 4.9606M7.30692 4.9606L3.43372 5.42629L3.32997 11.5345M7.30692 4.9606L6.19164 2.31116M12.6974 4.9606L13.804 2.31116M12.5893 24.958L10 29L7.18156 24.958M12.5893 24.958L13.7954 27.6934M7.18156 24.958L3.50288 24.6867L3.32997 18.5831M7.18156 24.958L6.20029 27.6934M3.32997 18.5831L1.47983 19.519M3.32997 11.5345L1.45821 10.576" stroke="#7F573B" stroke-width="0.5" stroke-linecap="round" stroke-linejoin="round"/>
</svg>
