<svg width="30" height="30" viewBox="0 0 30 30" fill="none" xmlns="http://www.w3.org/2000/svg">
<path d="M1 1H29M1 1V29M1 1L20.975 9.03813M1 1L9.08189 20.9312M29 1V29M29 1L9.08189 9.2963L1 29M29 1L20.975 20.9312M29 29H1M29 29L20.975 9.03813M29 29L9.08189 20.9312M1 29L20.975 20.9312M20.975 9.03813H25.7926V20.9312H20.975M20.975 9.03813V4.2205H9.08189V9.03813H4.25988V20.9312H9.08189M9.08189 20.9312V25.7489H20.975V20.9312" stroke="#7F573B" stroke-width="0.5" stroke-linecap="round" stroke-linejoin="round"/>
</svg>
