<svg width="200" height="95" viewBox="0 0 200 95" fill="none" xmlns="http://www.w3.org/2000/svg">
<path d="M0.000653346 88.8908H0.879623V94.1746H4.2111V94.9217H0.000653346V88.8908Z" fill="#5D5D5D"/>
<path d="M11.0769 93.4155L10.4008 94.9217H9.49721L12.2816 88.8908H13.1545L15.9512 94.9217H15.0292L14.3531 93.4155H11.0769ZM14.0396 92.7286L12.7119 89.7764L11.3842 92.7286H14.0396Z" fill="#5D5D5D"/>
<path d="M27.3532 93.295C27.3532 94.3312 26.5541 94.9217 24.999 94.9217H22.0609V88.8908H24.8208C26.2345 88.8908 27.0274 89.4752 27.0274 90.4512C27.0274 91.1079 26.6832 91.5598 26.2038 91.7948C26.8983 91.9816 27.3532 92.4937 27.3532 93.295ZM22.9399 89.5897V91.5176H24.7409C25.6383 91.5176 26.1485 91.1923 26.1485 90.5537C26.1485 89.915 25.6383 89.5897 24.7409 89.5897H22.9399ZM26.4619 93.2227C26.4619 92.5238 25.9333 92.2165 24.9622 92.2165H22.9399V94.2228H24.9622C25.9395 94.2228 26.4619 93.9216 26.4619 93.2227Z" fill="#5D5D5D"/>
<path d="M45.7501 91.8731H46.5922V94.2228C45.9775 94.7289 45.1231 94.988 44.2626 94.988C42.3756 94.988 40.9864 93.6866 40.9864 91.9032C40.9864 90.1199 42.3756 88.8185 44.281 88.8185C45.2584 88.8185 46.082 89.1378 46.6475 89.7463L46.1004 90.2825C45.5903 89.8006 45.0125 89.5837 44.3179 89.5837C42.8919 89.5837 41.8654 90.5597 41.8654 91.9032C41.8654 93.2468 42.8919 94.2228 44.3118 94.2228C44.8281 94.2228 45.3137 94.1083 45.7501 93.8372V91.8731Z" fill="#5D5D5D"/>
<path d="M57.5885 94.9217L56.2608 93.072C56.1379 93.0781 56.0088 93.0901 55.8736 93.0901H54.3554V94.9277H53.4764V88.8968H55.8736C57.4717 88.8968 58.4429 89.6921 58.4429 90.9995C58.4429 91.9273 57.9512 92.6021 57.0906 92.9034L58.5474 94.9277H57.5885V94.9217ZM57.5639 90.9935C57.5639 90.1319 56.9739 89.6379 55.849 89.6379H54.3554V92.3491H55.849C56.9739 92.3491 57.5639 91.849 57.5639 90.9874V90.9935Z" fill="#5D5D5D"/>
<path d="M64.5649 91.9093C64.5649 90.144 65.9541 88.8245 67.8411 88.8245C69.7281 88.8245 71.0988 90.1319 71.0988 91.9093C71.0988 93.6866 69.7097 94.994 67.8411 94.994C65.9725 94.994 64.5649 93.6745 64.5649 91.9093ZM70.226 91.9093C70.226 90.5717 69.2057 89.5897 67.8473 89.5897C66.4888 89.5897 65.4501 90.5717 65.4501 91.9093C65.4501 93.2468 66.4704 94.2288 67.8473 94.2288C69.2241 94.2288 70.226 93.2468 70.226 91.9093Z" fill="#5D5D5D"/>
<path d="M86.3425 88.8908L84.2834 94.9217H83.3614L81.6833 90.1078L80.0053 94.9217H79.0649L77.0057 88.8908H77.9093L79.5689 93.795L81.3023 88.8908H82.1136L83.8101 93.8191L85.5066 88.8908H86.3425Z" fill="#5D5D5D"/>
<path d="M98.0396 88.8908V94.9217H97.3204L93.6263 90.4271V94.9217H92.7473V88.8908H93.4664L97.1606 93.3853V88.8908H98.0396Z" fill="#5D5D5D"/>
<path d="M112.656 88.8908H115.25C117.229 88.8908 118.569 90.1138 118.569 91.9093C118.569 93.7047 117.223 94.9217 115.25 94.9217H112.656V88.8908ZM115.195 94.1746C116.713 94.1746 117.69 93.2588 117.69 91.9093C117.69 90.5597 116.713 89.6439 115.195 89.6439H113.535V94.1746H115.195Z" fill="#5D5D5D"/>
<path d="M125.122 88.8908H126.001V94.9217H125.122V88.8908Z" fill="#5D5D5D"/>
<path d="M133.696 93.4155L133.02 94.9217H132.117L134.901 88.8908H135.774L138.57 94.9217H137.648L136.972 93.4155H133.696ZM136.659 92.7286L135.331 89.7764L134.004 92.7286H136.659Z" fill="#5D5D5D"/>
<path d="M150.39 90.5296L148.159 94.1927H147.754L145.528 90.5597V94.9277H144.686V88.8968H145.406L147.975 93.1323L150.507 88.8968H151.226V94.9277H150.39V90.5296Z" fill="#5D5D5D"/>
<path d="M157.779 91.9093C157.779 90.144 159.168 88.8245 161.055 88.8245C162.942 88.8245 164.313 90.1319 164.313 91.9093C164.313 93.6866 162.923 94.994 161.055 94.994C159.186 94.994 157.779 93.6745 157.779 91.9093ZM163.44 91.9093C163.44 90.5717 162.419 89.5897 161.061 89.5897C159.703 89.5897 158.664 90.5717 158.664 91.9093C158.664 93.2468 159.684 94.2288 161.061 94.2288C162.438 94.2288 163.44 93.2468 163.44 91.9093Z" fill="#5D5D5D"/>
<path d="M176.157 88.8908V94.9217H175.438L171.744 90.4271V94.9217H170.865V88.8908H171.584L175.278 93.3853V88.8908H176.157Z" fill="#5D5D5D"/>
<path d="M183.207 88.8908H185.801C187.78 88.8908 189.12 90.1138 189.12 91.9093C189.12 93.7047 187.774 94.9217 185.801 94.9217H183.207V88.8908ZM185.746 94.1746C187.264 94.1746 188.241 93.2588 188.241 91.9093C188.241 90.5597 187.264 89.6439 185.746 89.6439H184.086V94.1746H185.746Z" fill="#5D5D5D"/>
<path d="M195.107 94.2348L195.433 93.5661C195.888 93.9698 196.675 94.265 197.461 94.265C198.525 94.265 198.98 93.8613 198.98 93.3371C198.98 91.8671 195.255 92.7949 195.255 90.5537C195.255 89.6258 195.992 88.8306 197.609 88.8306C198.328 88.8306 199.078 89.0173 199.588 89.3668L199.299 90.0536C198.765 89.7162 198.156 89.5595 197.609 89.5595C196.564 89.5595 196.115 89.9933 196.115 90.5175C196.115 91.9876 199.84 91.0718 199.84 93.2829C199.84 94.2047 199.084 95 197.461 95C196.521 95 195.599 94.6927 195.107 94.2409V94.2348Z" fill="#5D5D5D"/>
<path d="M199.803 66.6109L178.179 0.626585C178.057 0.253044 177.7 0 177.3 0C176.901 0 176.544 0.253044 176.421 0.626585L154.798 66.6109C154.644 67.0868 154.908 67.5929 155.394 67.7496C155.879 67.9062 156.396 67.6411 156.556 67.1651L177.3 3.85591L191.616 47.5362H168.769C168.259 47.5362 167.847 47.9398 167.847 48.4399C167.847 48.9399 168.259 49.3436 168.769 49.3436H192.206L198.045 67.1591C198.168 67.5447 198.531 67.7857 198.924 67.7857C199.017 67.7857 199.115 67.7737 199.207 67.7435C199.693 67.5929 199.957 67.0808 199.803 66.6048V66.6109ZM68.4435 32.7933C68.9536 32.7933 69.3655 32.3897 69.3655 31.8896C69.3655 31.3895 68.9536 30.9859 68.4435 30.9859C58.0925 30.9859 49.6716 39.2399 49.6716 49.3858C49.6716 59.5317 58.0925 67.7857 68.4435 67.7857C68.9536 67.7857 69.3655 67.382 69.3655 66.882V48.7592C69.3655 48.2591 68.9536 47.8555 68.4435 47.8555C67.9333 47.8555 67.5215 48.2591 67.5215 48.7592V65.9542C58.615 65.4842 51.5156 58.2303 51.5156 49.3858C51.5156 40.5413 59.1129 32.7933 68.4435 32.7933ZM130.906 30.9859C130.395 30.9859 129.984 31.3895 129.984 31.8896V66.882C129.984 67.382 130.395 67.7857 130.906 67.7857C141.257 67.7857 149.677 59.5317 149.677 49.3858C149.677 39.2399 141.257 30.9859 130.906 30.9859ZM131.828 65.9542V32.8174C140.734 33.2874 147.833 40.5413 147.833 49.3858C147.833 58.2303 140.734 65.4842 131.828 65.9542ZM100.799 0.626585C100.676 0.253044 100.32 0 99.9204 0C99.5209 0 99.1644 0.253044 99.0415 0.626585L77.4176 66.6109C77.2639 67.0868 77.5282 67.5929 78.0138 67.7496C78.4994 67.9062 79.0157 67.6411 79.1755 67.1651L85.0148 49.3496H114.826L120.665 67.1651C120.788 67.5507 121.151 67.7917 121.544 67.7917C121.636 67.7917 121.735 67.7797 121.827 67.7496C122.313 67.5989 122.577 67.0868 122.423 66.6109L100.799 0.626585ZM85.611 47.5362L99.9204 3.85591L114.236 47.5362H85.611ZM23.4255 0.626585C23.3026 0.253044 22.9461 0 22.5465 0C22.147 0 21.7905 0.253044 21.6676 0.626585L0.0436798 66.6109C-0.109986 67.0868 0.154319 67.5929 0.639904 67.7496C0.732103 67.7797 0.83045 67.7917 0.922649 67.7917C1.30989 67.7917 1.67254 67.5447 1.80162 67.1651L7.64093 49.3496H31.0473C31.5575 49.3496 31.9693 48.946 31.9693 48.4459C31.9693 47.9458 31.5575 47.5422 31.0473 47.5422H8.231L22.5465 3.85591L43.2914 67.1591C43.4451 67.6351 43.9676 67.9002 44.4531 67.7435C44.9387 67.5929 45.203 67.0808 45.0494 66.6048L23.4255 0.626585Z" fill="#5D5D5D"/>
<path d="M199.693 79.6788H0.307985C0.135879 79.6788 0.000653346 79.5462 0.000653346 79.3775C0.000653346 79.2088 0.135879 79.0763 0.307985 79.0763H199.693C199.865 79.0763 200 79.2088 200 79.3775C200 79.5462 199.865 79.6788 199.693 79.6788Z" fill="#5D5D5D"/>
<path d="M199.693 79.6788H0.307985C0.135879 79.6788 0.000653346 79.5462 0.000653346 79.3775C0.000653346 79.2088 0.135879 79.0763 0.307985 79.0763H199.693C199.865 79.0763 200 79.2088 200 79.3775C200 79.5462 199.865 79.6788 199.693 79.6788Z" fill="#5D5D5D"/>
</svg>
